<svg width="23" height="24" viewBox="0 0 23 24" fill="none" xmlns="http://www.w3.org/2000/svg">
<path d="M14.1371 5.95197H2.23233C1.81566 5.95197 1.48828 5.62459 1.48828 5.20792C1.48828 4.79125 1.81566 4.46387 2.23233 4.46387H14.1371C14.5538 4.46387 14.8812 4.79125 14.8812 5.20792C14.8812 5.62459 14.5538 5.95197 14.1371 5.95197ZM20.0896 10.4163H11.1609C10.7443 10.4163 10.4169 10.0889 10.4169 9.67222C10.4169 9.25555 10.7443 8.92817 11.1609 8.92817H20.0896C20.5062 8.92817 20.8336 9.25555 20.8336 9.67222C20.8336 10.0889 20.5062 10.4163 20.0896 10.4163Z" fill="#4A4A4A"/>
<path d="M8.18546 20.8338C7.76879 20.8338 7.44141 20.5064 7.44141 20.0897V5.28311C7.44141 4.86644 7.76879 4.53906 8.18546 4.53906C8.60213 4.53906 8.92951 4.86644 8.92951 5.28311V20.0897C8.92951 20.5064 8.60213 20.8338 8.18546 20.8338ZM15.626 20.8338C15.2093 20.8338 14.8819 20.5064 14.8819 20.0897V9.74742C14.8819 9.33075 15.2093 9.00337 15.626 9.00337C16.0426 9.00337 16.37 9.33075 16.37 9.74742V20.0897C16.37 20.5064 16.0426 20.8338 15.626 20.8338Z" fill="#4A4A4A"/>
</svg>
