<svg width="30" height="24" viewBox="0 0 30 24" fill="none" xmlns="http://www.w3.org/2000/svg">
<path d="M16.0625 23.1875V16.8125H20.3125L15 10.4375L9.6875 16.8125H13.9375V23.1875H8.625V23.1344C8.4465 23.145 8.2765 23.1875 8.09375 23.1875C5.98031 23.1875 3.95342 22.3479 2.45899 20.8535C0.964562 19.3591 0.125 17.3322 0.125 15.2188C0.125 11.1302 3.21688 7.79825 7.18425 7.34138C7.5321 5.523 8.50271 3.88267 9.92914 2.70251C11.3556 1.52235 13.1487 0.876135 15 0.875C16.8516 0.876024 18.645 1.52216 20.0718 2.70229C21.4986 3.88243 22.4696 5.52282 22.8179 7.34138C26.7852 7.79825 29.8729 11.1302 29.8729 15.2188C29.8729 17.3322 29.0333 19.3591 27.5389 20.8535C26.0445 22.3479 24.0176 23.1875 21.9041 23.1875C21.7256 23.1875 21.5535 23.145 21.3729 23.1344V23.1875H16.0625Z" fill="#757575"/>
</svg>
